<svg width="162" height="152" viewBox="0 0 162 152" fill="none" xmlns="http://www.w3.org/2000/svg">
<g id="Group 16">
<g id="Ellipse 5" filter="url(#filter0_f_7807_27917)">
<circle cx="105.124" cy="55.9772" r="11.9772" fill="#FFC701" fill-opacity="0.5"/>
</g>
<circle id="Ellipse 4" cx="105.124" cy="56.3696" r="10.5845" fill="url(#paint0_linear_7807_27917)" stroke="url(#paint1_linear_7807_27917)" stroke-width="2"/>
<g id="Mask group">
<mask id="mask0_7807_27917" style="mask-type:alpha" maskUnits="userSpaceOnUse" x="93" y="51" width="24" height="17">
<path id="Ellipse 5_2" d="M116.708 56.3675C116.708 62.7655 111.521 67.952 105.124 67.952C98.7256 67.952 93.5391 62.7655 93.5391 56.3675C93.5391 49.9696 97.842 51.4589 104.24 51.4589C110.638 51.4589 116.708 49.9696 116.708 56.3675Z" fill="url(#paint2_linear_7807_27917)"/>
</mask>
<g mask="url(#mask0_7807_27917)">
<g id="Union" filter="url(#filter1_f_7807_27917)">
<path fill-rule="evenodd" clip-rule="evenodd" d="M114.254 86.0151C114.287 86.0154 114.319 86.0156 114.352 86.0156C119.015 86.0156 122.795 82.2356 122.795 77.5727C122.795 72.9098 119.015 69.1298 114.352 69.1298C114.319 69.1298 114.287 69.1299 114.254 69.1303V69.1298H108.872C108.99 68.4276 109.051 67.7063 109.051 66.9706C109.051 59.8136 103.249 54.0117 96.092 54.0117C88.935 54.0117 83.1331 59.8136 83.1331 66.9706C83.1331 67.7349 83.1993 68.4838 83.3262 69.2117C79.2225 69.7862 76.0645 73.3107 76.0645 77.5727C76.0645 82.2356 79.8445 86.0156 84.5074 86.0156C84.5404 86.0156 84.5733 86.0154 84.6062 86.015L84.6057 86.0156H114.254V86.0151Z" fill="#E18700"/>
</g>
</g>
</g>
<g id="Union_2" filter="url(#filter2_bd_7807_27917)">
<mask id="path-5-inside-1_7807_27917" fill="white">
<path fill-rule="evenodd" clip-rule="evenodd" d="M109.344 86.9984C109.376 86.9987 109.409 86.9989 109.442 86.9989C114.105 86.9989 117.885 83.2189 117.885 78.556C117.885 73.8931 114.105 70.1131 109.442 70.1131C109.409 70.1131 109.376 70.1133 109.344 70.1136V70.1131H107.162C107.241 69.5352 107.282 68.9452 107.282 68.3456C107.282 61.1886 101.48 55.3867 94.323 55.3867C87.166 55.3867 81.3641 61.1886 81.3641 68.3456C81.3641 69.021 81.4157 69.6844 81.5153 70.3319C80.8991 70.1888 80.257 70.1131 79.5972 70.1131C74.9343 70.1131 71.1543 73.8931 71.1543 78.556C71.1543 83.2189 74.9343 86.9989 79.5972 86.9989C79.6302 86.9989 79.6631 86.9987 79.696 86.9984L79.6956 86.9989H109.344V86.9984Z"/>
</mask>
<path fill-rule="evenodd" clip-rule="evenodd" d="M109.344 86.9984C109.376 86.9987 109.409 86.9989 109.442 86.9989C114.105 86.9989 117.885 83.2189 117.885 78.556C117.885 73.8931 114.105 70.1131 109.442 70.1131C109.409 70.1131 109.376 70.1133 109.344 70.1136V70.1131H107.162C107.241 69.5352 107.282 68.9452 107.282 68.3456C107.282 61.1886 101.48 55.3867 94.323 55.3867C87.166 55.3867 81.3641 61.1886 81.3641 68.3456C81.3641 69.021 81.4157 69.6844 81.5153 70.3319C80.8991 70.1888 80.257 70.1131 79.5972 70.1131C74.9343 70.1131 71.1543 73.8931 71.1543 78.556C71.1543 83.2189 74.9343 86.9989 79.5972 86.9989C79.6302 86.9989 79.6631 86.9987 79.696 86.9984L79.6956 86.9989H109.344V86.9984Z" fill="url(#paint3_linear_7807_27917)" shape-rendering="crispEdges"/>
<path d="M109.344 86.9984L109.367 84.9985C108.832 84.9924 108.318 85.2005 107.938 85.5762C107.558 85.9519 107.344 86.464 107.344 86.9984H109.344ZM109.344 70.1136H107.344C107.344 70.648 107.558 71.1601 107.938 71.5358C108.318 71.9115 108.832 72.1196 109.367 72.1135L109.344 70.1136ZM109.344 70.1131H111.344C111.344 69.0085 110.449 68.1131 109.344 68.1131V70.1131ZM107.162 70.1131L105.181 69.8428C105.103 70.4151 105.276 70.9932 105.656 71.4283C106.035 71.8634 106.585 72.1131 107.162 72.1131V70.1131ZM81.5153 70.3319L81.0628 72.28C81.7093 72.4302 82.3883 72.2499 82.8751 71.7986C83.3618 71.3473 83.593 70.6839 83.4921 70.0278L81.5153 70.3319ZM79.696 86.9984L81.267 88.2361C81.7437 87.6311 81.8306 86.806 81.4904 86.115C81.1501 85.4239 80.4433 84.9896 79.6731 84.9985L79.696 86.9984ZM79.6956 86.9989L78.1246 85.7612C77.6505 86.363 77.5618 87.1827 77.8962 87.872C78.2307 88.5613 78.9295 88.9989 79.6956 88.9989V86.9989ZM109.344 86.9989V88.9989C110.449 88.9989 111.344 88.1035 111.344 86.9989H109.344ZM109.321 88.9982C109.361 88.9987 109.401 88.9989 109.442 88.9989V84.9989C109.417 84.9989 109.392 84.9988 109.367 84.9985L109.321 88.9982ZM109.442 88.9989C115.209 88.9989 119.885 84.3235 119.885 78.556H115.885C115.885 82.1143 113 84.9989 109.442 84.9989V88.9989ZM119.885 78.556C119.885 72.7885 115.209 68.1131 109.442 68.1131V72.1131C113 72.1131 115.885 74.9977 115.885 78.556H119.885ZM109.442 68.1131C109.401 68.1131 109.361 68.1133 109.321 68.1138L109.367 72.1135C109.392 72.1132 109.417 72.1131 109.442 72.1131V68.1131ZM107.344 70.1131V70.1136H111.344V70.1131H107.344ZM107.162 72.1131H109.344V68.1131H107.162V72.1131ZM109.144 70.3833C109.235 69.7161 109.282 69.0358 109.282 68.3456H105.282C105.282 68.8545 105.247 69.3542 105.181 69.8428L109.144 70.3833ZM109.282 68.3456C109.282 60.084 102.585 53.3867 94.323 53.3867V57.3867C100.375 57.3867 105.282 62.2932 105.282 68.3456H109.282ZM94.323 53.3867C86.0614 53.3867 79.3641 60.084 79.3641 68.3456H83.3641C83.3641 62.2932 88.2705 57.3867 94.323 57.3867V53.3867ZM79.3641 68.3456C79.3641 69.1232 79.4236 69.8882 79.5386 70.636L83.4921 70.0278C83.4079 69.4806 83.3641 68.9189 83.3641 68.3456H79.3641ZM81.9679 68.3838C81.2043 68.2064 80.4104 68.1131 79.5972 68.1131V72.1131C80.1036 72.1131 80.5939 72.1711 81.0628 72.28L81.9679 68.3838ZM79.5972 68.1131C73.8298 68.1131 69.1543 72.7885 69.1543 78.556H73.1543C73.1543 74.9977 76.0389 72.1131 79.5972 72.1131V68.1131ZM69.1543 78.556C69.1543 84.3235 73.8298 88.9989 79.5972 88.9989V84.9989C76.0389 84.9989 73.1543 82.1143 73.1543 78.556H69.1543ZM79.5972 88.9989C79.6378 88.9989 79.6784 88.9987 79.719 88.9982L79.6731 84.9985C79.6479 84.9988 79.6226 84.9989 79.5972 84.9989V88.9989ZM81.2666 88.2367L81.267 88.2361L78.125 85.7606L78.1246 85.7612L81.2666 88.2367ZM109.344 84.9989H79.6956V88.9989H109.344V84.9989ZM107.344 86.9984V86.9989H111.344V86.9984H107.344Z" fill="url(#paint4_linear_7807_27917)" mask="url(#path-5-inside-1_7807_27917)"/>
</g>
<g id="Union_3" filter="url(#filter3_bd_7807_27917)">
<mask id="path-7-inside-2_7807_27917" fill="white">
<path fill-rule="evenodd" clip-rule="evenodd" d="M124.672 78.232C124.695 78.2322 124.719 78.2324 124.743 78.2324C128.112 78.2324 130.844 75.5006 130.844 72.1308C130.844 68.7609 128.112 66.0292 124.743 66.0292C124.719 66.0292 124.695 66.0293 124.672 66.0296V66.0292H123.095C123.152 65.6116 123.181 65.1852 123.181 64.752C123.181 59.5797 118.988 55.3867 113.816 55.3867C108.644 55.3867 104.451 59.5797 104.451 64.752C104.451 65.24 104.488 65.7194 104.56 66.1873C104.115 66.0838 103.651 66.0292 103.174 66.0292C99.804 66.0292 97.0723 68.7609 97.0723 72.1308C97.0723 75.5006 99.804 78.2324 103.174 78.2324C103.198 78.2324 103.222 78.2322 103.246 78.232L103.245 78.2324H124.672V78.232Z"/>
</mask>
<path fill-rule="evenodd" clip-rule="evenodd" d="M124.672 78.232C124.695 78.2322 124.719 78.2324 124.743 78.2324C128.112 78.2324 130.844 75.5006 130.844 72.1308C130.844 68.7609 128.112 66.0292 124.743 66.0292C124.719 66.0292 124.695 66.0293 124.672 66.0296V66.0292H123.095C123.152 65.6116 123.181 65.1852 123.181 64.752C123.181 59.5797 118.988 55.3867 113.816 55.3867C108.644 55.3867 104.451 59.5797 104.451 64.752C104.451 65.24 104.488 65.7194 104.56 66.1873C104.115 66.0838 103.651 66.0292 103.174 66.0292C99.804 66.0292 97.0723 68.7609 97.0723 72.1308C97.0723 75.5006 99.804 78.2324 103.174 78.2324C103.198 78.2324 103.222 78.2322 103.246 78.232L103.245 78.2324H124.672V78.232Z" fill="url(#paint5_linear_7807_27917)" shape-rendering="crispEdges"/>
<path d="M124.672 78.232L124.695 76.2321C124.16 76.226 123.646 76.434 123.266 76.8097C122.886 77.1854 122.672 77.6976 122.672 78.232H124.672ZM124.672 66.0296H122.672C122.672 66.564 122.886 67.0761 123.266 67.4518C123.646 67.8275 124.16 68.0355 124.695 68.0294L124.672 66.0296ZM124.672 66.0292H126.672C126.672 64.9246 125.776 64.0292 124.672 64.0292V66.0292ZM123.095 66.0292L121.113 65.7589C121.035 66.3312 121.208 66.9093 121.588 67.3444C121.968 67.7795 122.517 68.0292 123.095 68.0292V66.0292ZM104.56 66.1873L104.107 68.1354C104.754 68.2856 105.433 68.1052 105.92 67.6539C106.406 67.2027 106.638 66.5393 106.537 65.8833L104.56 66.1873ZM103.246 78.232L104.816 79.47C105.293 78.865 105.38 78.0399 105.04 77.3487C104.7 76.6576 103.993 76.2232 103.222 76.2321L103.246 78.232ZM103.245 78.2324L101.674 76.9943C101.2 77.5961 101.111 78.4159 101.446 79.1053C101.78 79.7947 102.479 80.2324 103.245 80.2324V78.2324ZM124.672 78.2324V80.2324C125.776 80.2324 126.672 79.337 126.672 78.2324H124.672ZM124.649 80.2318C124.68 80.2322 124.711 80.2324 124.743 80.2324V76.2324C124.727 76.2324 124.711 76.2323 124.695 76.2321L124.649 80.2318ZM124.743 80.2324C129.217 80.2324 132.844 76.6052 132.844 72.1308H128.844C128.844 74.396 127.008 76.2324 124.743 76.2324V80.2324ZM132.844 72.1308C132.844 67.6564 129.217 64.0292 124.743 64.0292V68.0292C127.008 68.0292 128.844 69.8655 128.844 72.1308H132.844ZM124.743 64.0292C124.711 64.0292 124.68 64.0293 124.649 64.0297L124.695 68.0294C124.711 68.0293 124.727 68.0292 124.743 68.0292V64.0292ZM122.672 66.0292V66.0296H126.672V66.0292H122.672ZM123.095 68.0292H124.672V64.0292H123.095V68.0292ZM125.076 66.2994C125.146 65.7925 125.181 65.2759 125.181 64.752H121.181C121.181 65.0946 121.158 65.4306 121.113 65.7589L125.076 66.2994ZM125.181 64.752C125.181 58.4751 120.093 53.3867 113.816 53.3867V57.3867C117.884 57.3867 121.181 60.6843 121.181 64.752H125.181ZM113.816 53.3867C107.539 53.3867 102.451 58.4751 102.451 64.752H106.451C106.451 60.6843 109.748 57.3867 113.816 57.3867V53.3867ZM102.451 64.752C102.451 65.3422 102.496 65.9231 102.583 66.4913L106.537 65.8833C106.48 65.5156 106.451 65.1379 106.451 64.752H102.451ZM105.012 64.2391C104.42 64.1015 103.804 64.0292 103.174 64.0292V68.0292C103.497 68.0292 103.809 68.0662 104.107 68.1354L105.012 64.2391ZM103.174 64.0292C98.6995 64.0292 95.0723 67.6564 95.0723 72.1308H99.0723C99.0723 69.8655 100.909 68.0292 103.174 68.0292V64.0292ZM95.0723 72.1308C95.0723 76.6052 98.6995 80.2324 103.174 80.2324V76.2324C100.909 76.2324 99.0723 74.396 99.0723 72.1308H95.0723ZM103.174 80.2324C103.205 80.2324 103.237 80.2322 103.269 80.2318L103.222 76.2321C103.206 76.2323 103.19 76.2324 103.174 76.2324V80.2324ZM104.816 79.4704L104.816 79.47L101.675 76.9939L101.674 76.9943L104.816 79.4704ZM124.672 76.2324H103.245V80.2324H124.672V76.2324ZM122.672 78.232V78.2324H126.672V78.232H122.672Z" fill="url(#paint6_linear_7807_27917)" mask="url(#path-7-inside-2_7807_27917)"/>
</g>
</g>
<defs>
<filter id="filter0_f_7807_27917" x="49.1465" y="0" width="111.955" height="111.955" filterUnits="userSpaceOnUse" color-interpolation-filters="sRGB">
<feFlood flood-opacity="0" result="BackgroundImageFix"/>
<feBlend mode="normal" in="SourceGraphic" in2="BackgroundImageFix" result="shape"/>
<feGaussianBlur stdDeviation="22" result="effect1_foregroundBlur_7807_27917"/>
</filter>
<filter id="filter1_f_7807_27917" x="62.0645" y="40.0117" width="74.7305" height="60.0039" filterUnits="userSpaceOnUse" color-interpolation-filters="sRGB">
<feFlood flood-opacity="0" result="BackgroundImageFix"/>
<feBlend mode="normal" in="SourceGraphic" in2="BackgroundImageFix" result="shape"/>
<feGaussianBlur stdDeviation="7" result="effect1_foregroundBlur_7807_27917"/>
</filter>
<filter id="filter2_bd_7807_27917" x="0.154297" y="20.3867" width="146.73" height="131.611" filterUnits="userSpaceOnUse" color-interpolation-filters="sRGB">
<feFlood flood-opacity="0" result="BackgroundImageFix"/>
<feGaussianBlur in="BackgroundImageFix" stdDeviation="7"/>
<feComposite in2="SourceAlpha" operator="in" result="effect1_backgroundBlur_7807_27917"/>
<feColorMatrix in="SourceAlpha" type="matrix" values="0 0 0 0 0 0 0 0 0 0 0 0 0 0 0 0 0 0 127 0" result="hardAlpha"/>
<feOffset dx="-21" dy="15"/>
<feGaussianBlur stdDeviation="25"/>
<feComposite in2="hardAlpha" operator="out"/>
<feColorMatrix type="matrix" values="0 0 0 0 0.113725 0 0 0 0 0.14902 0 0 0 0 0.27451 0 0 0 0.25 0"/>
<feBlend mode="normal" in2="effect1_backgroundBlur_7807_27917" result="effect2_dropShadow_7807_27917"/>
<feBlend mode="normal" in="SourceGraphic" in2="effect2_dropShadow_7807_27917" result="shape"/>
</filter>
<filter id="filter3_bd_7807_27917" x="26.0723" y="20.3867" width="133.771" height="122.846" filterUnits="userSpaceOnUse" color-interpolation-filters="sRGB">
<feFlood flood-opacity="0" result="BackgroundImageFix"/>
<feGaussianBlur in="BackgroundImageFix" stdDeviation="7"/>
<feComposite in2="SourceAlpha" operator="in" result="effect1_backgroundBlur_7807_27917"/>
<feColorMatrix in="SourceAlpha" type="matrix" values="0 0 0 0 0 0 0 0 0 0 0 0 0 0 0 0 0 0 127 0" result="hardAlpha"/>
<feOffset dx="-21" dy="15"/>
<feGaussianBlur stdDeviation="25"/>
<feComposite in2="hardAlpha" operator="out"/>
<feColorMatrix type="matrix" values="0 0 0 0 0.113438 0 0 0 0 0.148981 0 0 0 0 0.275 0 0 0 0.25 0"/>
<feBlend mode="normal" in2="effect1_backgroundBlur_7807_27917" result="effect2_dropShadow_7807_27917"/>
<feBlend mode="normal" in="SourceGraphic" in2="effect2_dropShadow_7807_27917" result="shape"/>
</filter>
<linearGradient id="paint0_linear_7807_27917" x1="105.124" y1="44.7852" x2="105.124" y2="67.9541" gradientUnits="userSpaceOnUse">
<stop stop-color="#FFE600"/>
<stop offset="1" stop-color="#FF7A00"/>
</linearGradient>
<linearGradient id="paint1_linear_7807_27917" x1="105.124" y1="44.7852" x2="105.124" y2="67.9541" gradientUnits="userSpaceOnUse">
<stop stop-color="white"/>
<stop offset="1" stop-color="white" stop-opacity="0"/>
</linearGradient>
<linearGradient id="paint2_linear_7807_27917" x1="105.124" y1="44.7831" x2="105.124" y2="67.952" gradientUnits="userSpaceOnUse">
<stop stop-color="#FFD600"/>
<stop offset="1" stop-color="#FF7A00"/>
</linearGradient>
<linearGradient id="paint3_linear_7807_27917" x1="94.5194" y1="45.2747" x2="94.5194" y2="91.4168" gradientUnits="userSpaceOnUse">
<stop stop-color="white"/>
<stop offset="1" stop-color="white" stop-opacity="0"/>
</linearGradient>
<linearGradient id="paint4_linear_7807_27917" x1="94.5194" y1="55.3867" x2="94.5194" y2="86.9989" gradientUnits="userSpaceOnUse">
<stop stop-color="white"/>
<stop offset="1" stop-color="white" stop-opacity="0"/>
</linearGradient>
<linearGradient id="paint5_linear_7807_27917" x1="115.529" y1="56.0739" x2="115.529" y2="80.8138" gradientUnits="userSpaceOnUse">
<stop stop-color="white"/>
<stop offset="1" stop-color="white" stop-opacity="0"/>
</linearGradient>
<linearGradient id="paint6_linear_7807_27917" x1="113.958" y1="55.3867" x2="113.958" y2="78.2324" gradientUnits="userSpaceOnUse">
<stop stop-color="white"/>
<stop offset="1" stop-color="white" stop-opacity="0"/>
</linearGradient>
</defs>
</svg>
